# xmcd CD database file
#
# Track frame offsets:
#	150
#	17483
#	32323
#	48628
#	63048
#	76536
#	95823
#	113715
#	138725
#	153642
#	178884
#	199641
#	224791
#	242711
#	258058
#	276253
#	295440
#	318640
#	337838
#
# Disc length: 4728 seconds
#
# Revision: 0
# Processed by: cddbd v1.5.2PL0 Copyright (c) Steve Scherf et al.
# Submitted via: CDex 1.51
#
DISCID=15127613
DTITLE=Various Artist - Beirut Country Classics
DYEAR=2005
DGENRE=Country
TTITLE0=Chely Wright - It Was
TTITLE1=Chely Wright - Single White Female
TTITLE2=Wynonna - What The World Needs
TTITLE3=Wynonna - Burnin Love
TTITLE4=Wynonna - A Little Bit Of Love
TTITLE5=Wynonna - What It Takes
TTITLE6=Rebecca Lynn Howard - Forgive
TTITLE7=Sara Evans - Greyhound Bus
TTITLE8=Sara Evans - Big Cry
TTITLE9=Sara Evans - Born To Fly
TTITLE10=Sara Evans - Keep Lookin
TTITLE11=Toby Kieth - I Love This Bar
TTITLE12=Toby Kieth - The Taliban Song
TTITLE13=Montgomery Gentry - If Its The Last Thing I Do
TTITLE14=Montgomery Gentry - If You Ever Stop Lovin Me
TTITLE15=Tim McGraw - Real Good Man
TTITLE16=Tim McGraw - Tiny Dancer
TTITLE17=Tim McGraw - She's My Kind Of Rain
TTITLE18=Tim McGraw - Who Are They?
EXTD=YEAR: 2005
EXTT0=
EXTT1=
EXTT2=
EXTT3=
EXTT4=
EXTT5=
EXTT6=
EXTT7=
EXTT8=
EXTT9=
EXTT10=
EXTT11=
EXTT12=
EXTT13=
EXTT14=
EXTT15=
EXTT16=
EXTT17=
EXTT18=
PLAYORDER=
